# xmcd
#
# Track frame offsets:
#	150
#	14602
#	36132
#	52367
#	74087
#	95879
#	116523
#	133378
#	158413
#	181979
#	201908
#	215850
#	240423
#	259640
#
# Disc length: 3660 seconds
#
# Revision: 0
# Processed by: cddbd v1.5.1PL2 Copyright (c) Steve Scherf et al.
# Submitted via: dBpowerAMP V4.0
#
DISCID=db0e4a0e
DTITLE=Paul July - Sommer auf'm Berg
DYEAR=2005
DGENRE=Ballad
TTITLE0=Sommer auf'm Berg
TTITLE1=Feuerroter Sonnenuntergang
TTITLE2=Gemma wandern
TTITLE3=Komm wieder z'ruck
TTITLE4=Möch'st du vielleicht...?
TTITLE5=Genau des mog i
TTITLE6=Ossiachersee
TTITLE7=Weit weit weg
TTITLE8=Hüttenblues
TTITLE9=Mit dir
TTITLE10=Der Durscht
TTITLE11=Wenn es Nacht wird auf der Alm
TTITLE12=I mog Kärnten (G-mix)
TTITLE13=Endlich Sommer
EXTD=
EXTT0=
EXTT1=
EXTT2=
EXTT3=
EXTT4=
EXTT5=
EXTT6=
EXTT7=
EXTT8=
EXTT9=
EXTT10=
EXTT11=
EXTT12=
EXTT13=
PLAYORDER=
